<svg id="_x33_0" enable-background="new 0 0 64 64" height="512" viewBox="0 0 64 64" width="512" xmlns="http://www.w3.org/2000/svg"><g><path d="m13 5h2v2h-2z"/><path d="m17 5h2v2h-2z"/><path d="m21 5h2v2h-2z"/><path d="m35 1h-26v10h26zm-2 8h-22v-6h22z"/><path d="m25 49h2v2h-2z"/><path d="m29 49h2v2h-2z"/><path d="m33 49h2v2h-2z"/><path d="m25 33h2v2h-2z"/><path d="m29 33h2v2h-2z"/><path d="m33 33h2v2h-2z"/><path d="m27 13h-26v18h12v6h-12v10h12v6h-12v10h26v-8h12v-10h-12v-6h12v-10h-12zm-2 2v6h-22v-6zm-22 8h22v6h-22zm22 38h-22v-6h22zm12-8h-22v-6h22zm-12-8h-22v-6h22zm12-14v6h-22v-6z"/><path d="m58 5h-17.586l2.293-2.293-1.414-1.414-4.707 4.707 4.707 4.707 1.414-1.414-2.293-2.293h17.586c1.654 0 3 1.346 3 3v20c0 1.654-1.346 3-3 3h-17v2h17c2.757 0 5-2.243 5-5v-20c0-2.757-2.243-5-5-5z"/><path d="m48 47h-7v6h7v2.723l10.016-5.723-10.016-5.723zm2 .723 3.984 2.277-3.984 2.277v-1.277h-7v-2h7z"/></g></svg>